<?xml version="1.0" encoding="utf-8"?>
<!-- Generator: Adobe Illustrator 26.0.1, SVG Export Plug-In . SVG Version: 6.00 Build 0)  -->
<svg version="1.1" id="Layer_1" xmlns="http://www.w3.org/2000/svg" xmlns:xlink="http://www.w3.org/1999/xlink" x="0px" y="0px"
	 viewBox="0 0 841.89 595.28" style="enable-background:new 0 0 841.89 595.28;" xml:space="preserve">
<style type="text/css">
	.st0{fill:none;stroke:#000000;stroke-width:5;stroke-linecap:round;stroke-linejoin:round;stroke-miterlimit:10;}
</style>
<circle class="st0" cx="827.71" cy="266.64" r="0.51"/>
<path class="st0" d="M650.24,251.39l-9.83,19.66c0,0,20.24-19.08,19.08-12.72c-1.16,6.36-4.63,10.14,2.02,9.7
	c6.65-0.44,77.78-6.8,77.78-6.8"/>
<line class="st0" x1="558.29" y1="245.31" x2="603.4" y2="238.95"/>
<path class="st0" d="M594.14,215.82c0,0-39.9,69.69-28.92,65.06c10.99-4.63,25.16-19.37,25.16-19.37s-7.52,20.53-1.73,16.77
	c5.78-3.76,18.22-19.66,18.22-19.66l11.57-0.58c0,0-9.25,18.22-2.6,16.19c6.65-2.02,20.24-18.51,20.24-18.51l-43.37,87.04"/>
<path class="st0" d="M540.07,264.4c0,0-12.14,19.08-4.63,16.77s22.84-18.22,22.84-18.22l-47.13,83.86"/>
<path class="st0" d="M544.99,196.16c0,0-58.7,111.33-54.65,110.46c4.05-0.87,329.06-38.59,329.06-38.59"/>
<circle class="st0" cx="434.53" cy="292.43" r="0.58"/>
<path class="st0" d="M344.02,227.55l99.47-11.44c0,0-50.6,93.69-41.35,83.86c9.25-9.83,118.27-98.31,118.27-98.31"/>
<path class="st0" d="M377.28,284.93c0,0,4.05-4.08-1.16-3.05c-5.2,1.03,17.35,10.86-7.52,20.11"/>
<path class="st0" d="M235.01,320.49c0,0,62.25-21.56,50.31-31.81c0,0-8.39-3.18-13.88,11.86c-5.49,15.04,11.57,13.61,37.88-12.14
	c0,0-14.46,21.69-6.36,16.04c8.1-5.64,24-16.92,22.55-14.03c-1.45,2.89-9.07,15.04,0.09,11.86c9.16-3.18,22.46-17.06,22.46-17.06
	s-14.75,17.64-3.18,14.75c11.57-2.89,21.11-16.77,21.11-16.77l-49.73,81.54c0,0-5.49-36.43-117.4-26.02l274.12-30.65"/>
<path class="st0" d="M154.99,258.4c-0.61,0.16-144.16,2.69-139.23,2.6c13.17-0.23,322.05-47.49,311.64-29.28
	s-55.3,49.85-86.53,65.91s-89.78,45.99-84.58,36.88s58.55-79.37,58.55-79.37"/>
</svg>
